# xmcd
#
# Track frame offsets:
#  151
#  11358
#  31019
#  44212
#  56463
#  71490
#  86441
#  95680
#  106697
#  123686
#  136391
#  147956
#  167055
#  179000
#
# Disc length: 2536 seconds
#
# Revision: 0
# Processed by: cddbd v1.4PL0 Copyright (c) Steve Scherf et al.
# Submitted via: AltoMP3_Maker 3.0
#
DISCID=c009e60e
DTITLE=Mark Gainer - Heart and Mind
DYEAR=1900
DGENRE=
TTITLE0=I Wont Be Calling For You
TTITLE1=I Know She's Homeward Bound
TTITLE2=Little Girl At The Station
TTITLE3=You Never Even Cried
TTITLE4=Beauty Is A Fading Flower
TTITLE5=A Picture Of Calvary
TTITLE6=Foggy Mountain Special
TTITLE7=Heart of Stone
TTITLE8=White Dove
TTITLE9=Long Lost Love Affair
TTITLE10=Broken Vows
TTITLE11=Satisfied Mind
TTITLE12=Come and Take My Hand
TTITLE13=Live In Glory
EXTD=
EXTT0=
EXTT1=
EXTT2=
EXTT3=
EXTT4=
EXTT5=
EXTT6=
EXTT7=
EXTT8=
EXTT9=
EXTT10=
EXTT11=
EXTT12=
EXTT13=
PLAYORDER=
